{"title":"Nine Inch Nails - Broken [24-bit 44.1kHz flac] MC Lurken","uid":11751499,"size":384772179,"categoryP":"audio","categoryS":"flac","magnet":"?xt=urn:btih:a67f2a152e9de47a929d194fc07e0f8ae20e02bf&amp;dn=Nine+Inch+Nails+-+Broken+%5B24-bit+44.1kHz+flac%5D+MC+Lurken&amp;tr=udp%3A%2F%2Ftracker.openbittorrent.com%3A80&amp;tr=udp%3A%2F%2Fopen.demonii.com%3A1337&amp;tr=udp%3A%2F%2Ftracker.coppersurfer.tk%3A6969&amp;tr=udp%3A%2F%2Fexodus.desync.com%3A6969","seeders":1,"leechers":4,"uploader":"beavis39","files":111,"time":1426236031,"description":"Nine Inch Nails - Broken [24-bit 44.1kHz flac] MC Lurken\n\n\n\n1 - Pinion\n2 - Wish\n3 - Last\n4 - Help Me I Am in Hell\n5 - Happiness in Slavery\n6 - Gave Up\n98 - Physical (You're So) (Adam Ant cover)\n99 - Suck (Pigface cover)\n\n\n\nfoobar2000 1.3.7 / Dynamic Range Meter 1.1.1\nlog date: 2015-03-13 00:49:10\n\n--------------------------------------------------------------------------------\nAnalyzed: Nine Inch Nails / Broken\n--------------------------------------------------------------------------------\n\nDR         Peak         RMS     Duration Track\n--------------------------------------------------------------------------------\nDR10     -13.43 dB   -30.00 dB      1:03 01-Pinion\nDR8       -0.48 dB   -10.61 dB      3:47 02-Wish\nDR8       -0.48 dB    -9.53 dB      4:45 03-Last\nDR11      -4.31 dB   -20.10 dB      1:56 04-Help Me I Am in Hell\nDR8       -0.48 dB   -10.08 dB      5:21 05-Happiness in Slavery\nDR8       -0.48 dB   -11.07 dB      4:08 06-Gave Up\nDR9       -0.48 dB   -10.88 dB      5:30 98-Physical (You're So) (Adam Ant cover)\nDR6       -0.48 dB   -11.97 dB      5:07 99-Suck (Pigface cover)\n--------------------------------------------------------------------------------\n\nNumber of tracks:  8\nOfficial DR value: DR9\n\nSamplerate:        44100 Hz\nChannels:          2\nBits per sample:   24\nBitrate:           1520 kbps\nCodec:             FLAC","torrent":{"xt":"urn:btih:a67f2a152e9de47a929d194fc07e0f8ae20e02bf","amp;dn":"Nine+Inch+Nails+-+Broken+%5B24-bit+44.1kHz+flac%5D+MC+Lurken","amp;tr":["udp%3A%2F%2Ftracker.openbittorrent.com%3A80","udp%3A%2F%2Fopen.demonii.com%3A1337","udp%3A%2F%2Ftracker.coppersurfer.tk%3A6969","udp%3A%2F%2Fexodus.desync.com%3A6969"],"infoHash":"a67f2a152e9de47a929d194fc07e0f8ae20e02bf","infoHashBuffer":{"type":"Buffer","data":[166,127,42,21,46,157,228,122,146,157,25,79,192,126,15,138,226,14,2,191]},"announce":[],"urlList":[]}}